<mxfile host="app.diagrams.net" agent="Mozilla/5.0 (Windows NT 10.0; Win64; x64) AppleWebKit/537.36 (KHTML, like Gecko) Chrome/128.0.0.0 Safari/537.36" version="24.7.7">
  <diagram id="C5RBs43oDa-KdzZeNtuy" name="Page-1">
    <mxGraphModel dx="2580" dy="1382" grid="1" gridSize="10" guides="1" tooltips="1" connect="1" arrows="1" fold="1" page="1" pageScale="1" pageWidth="2339" pageHeight="3300" math="0" shadow="0">
      <root>
        <mxCell id="WIyWlLk6GJQsqaUBKTNV-0" />
        <mxCell id="WIyWlLk6GJQsqaUBKTNV-1" parent="WIyWlLk6GJQsqaUBKTNV-0" />
        <mxCell id="38oo2TJcjjMxT0UDTYOd-2" value="" style="edgeStyle=orthogonalEdgeStyle;rounded=0;orthogonalLoop=1;jettySize=auto;html=1;" edge="1" parent="WIyWlLk6GJQsqaUBKTNV-1" source="38oo2TJcjjMxT0UDTYOd-0">
          <mxGeometry relative="1" as="geometry">
            <mxPoint x="1269" y="200" as="targetPoint" />
          </mxGeometry>
        </mxCell>
        <mxCell id="38oo2TJcjjMxT0UDTYOd-0" value="Start" style="strokeWidth=2;html=1;shape=mxgraph.flowchart.start_1;whiteSpace=wrap;" vertex="1" parent="WIyWlLk6GJQsqaUBKTNV-1">
          <mxGeometry x="1214" y="80" width="110" height="70" as="geometry" />
        </mxCell>
        <mxCell id="38oo2TJcjjMxT0UDTYOd-5" value="" style="edgeStyle=orthogonalEdgeStyle;rounded=0;orthogonalLoop=1;jettySize=auto;html=1;" edge="1" parent="WIyWlLk6GJQsqaUBKTNV-1" source="38oo2TJcjjMxT0UDTYOd-3" target="38oo2TJcjjMxT0UDTYOd-4">
          <mxGeometry relative="1" as="geometry" />
        </mxCell>
        <mxCell id="38oo2TJcjjMxT0UDTYOd-3" value="Game Screen" style="rounded=1;whiteSpace=wrap;html=1;absoluteArcSize=1;arcSize=14;strokeWidth=2;" vertex="1" parent="WIyWlLk6GJQsqaUBKTNV-1">
          <mxGeometry x="1219" y="200" width="100" height="100" as="geometry" />
        </mxCell>
        <mxCell id="38oo2TJcjjMxT0UDTYOd-9" value="" style="edgeStyle=orthogonalEdgeStyle;rounded=0;orthogonalLoop=1;jettySize=auto;html=1;" edge="1" parent="WIyWlLk6GJQsqaUBKTNV-1" source="38oo2TJcjjMxT0UDTYOd-4">
          <mxGeometry relative="1" as="geometry">
            <mxPoint x="1269" y="560" as="targetPoint" />
          </mxGeometry>
        </mxCell>
        <mxCell id="38oo2TJcjjMxT0UDTYOd-12" style="edgeStyle=orthogonalEdgeStyle;rounded=0;orthogonalLoop=1;jettySize=auto;html=1;entryX=1;entryY=0.5;entryDx=0;entryDy=0;" edge="1" parent="WIyWlLk6GJQsqaUBKTNV-1" source="38oo2TJcjjMxT0UDTYOd-4" target="38oo2TJcjjMxT0UDTYOd-11">
          <mxGeometry relative="1" as="geometry">
            <mxPoint x="1024" y="435" as="targetPoint" />
          </mxGeometry>
        </mxCell>
        <mxCell id="38oo2TJcjjMxT0UDTYOd-4" value="1player&lt;div&gt;2player&lt;/div&gt;&lt;div&gt;Quit&lt;/div&gt;" style="strokeWidth=2;html=1;shape=mxgraph.flowchart.decision;whiteSpace=wrap;" vertex="1" parent="WIyWlLk6GJQsqaUBKTNV-1">
          <mxGeometry x="1191.5" y="360" width="155" height="150" as="geometry" />
        </mxCell>
        <mxCell id="38oo2TJcjjMxT0UDTYOd-7" style="edgeStyle=orthogonalEdgeStyle;rounded=0;orthogonalLoop=1;jettySize=auto;html=1;exitX=1;exitY=0.5;exitDx=0;exitDy=0;exitPerimeter=0;entryX=0;entryY=0.5;entryDx=0;entryDy=0;entryPerimeter=0;" edge="1" parent="WIyWlLk6GJQsqaUBKTNV-1" source="38oo2TJcjjMxT0UDTYOd-4">
          <mxGeometry relative="1" as="geometry">
            <mxPoint x="1494" y="435" as="targetPoint" />
          </mxGeometry>
        </mxCell>
        <mxCell id="38oo2TJcjjMxT0UDTYOd-10" value="2 Player" style="rounded=1;whiteSpace=wrap;html=1;absoluteArcSize=1;arcSize=14;strokeWidth=2;" vertex="1" parent="WIyWlLk6GJQsqaUBKTNV-1">
          <mxGeometry x="1214" y="560" width="110" height="120" as="geometry" />
        </mxCell>
        <mxCell id="38oo2TJcjjMxT0UDTYOd-14" style="edgeStyle=orthogonalEdgeStyle;rounded=0;orthogonalLoop=1;jettySize=auto;html=1;entryX=0.5;entryY=0;entryDx=0;entryDy=0;" edge="1" parent="WIyWlLk6GJQsqaUBKTNV-1" source="38oo2TJcjjMxT0UDTYOd-11">
          <mxGeometry relative="1" as="geometry">
            <mxPoint x="904" y="560" as="targetPoint" />
          </mxGeometry>
        </mxCell>
        <mxCell id="38oo2TJcjjMxT0UDTYOd-11" value="1 Player" style="rounded=1;whiteSpace=wrap;html=1;absoluteArcSize=1;arcSize=14;strokeWidth=2;" vertex="1" parent="WIyWlLk6GJQsqaUBKTNV-1">
          <mxGeometry x="854" y="385" width="100" height="100" as="geometry" />
        </mxCell>
        <mxCell id="38oo2TJcjjMxT0UDTYOd-18" value="" style="edgeStyle=orthogonalEdgeStyle;rounded=0;orthogonalLoop=1;jettySize=auto;html=1;" edge="1" parent="WIyWlLk6GJQsqaUBKTNV-1" source="38oo2TJcjjMxT0UDTYOd-15" target="38oo2TJcjjMxT0UDTYOd-17">
          <mxGeometry relative="1" as="geometry" />
        </mxCell>
        <mxCell id="38oo2TJcjjMxT0UDTYOd-15" value="Run the game" style="rounded=1;whiteSpace=wrap;html=1;absoluteArcSize=1;arcSize=14;strokeWidth=2;" vertex="1" parent="WIyWlLk6GJQsqaUBKTNV-1">
          <mxGeometry x="844" y="560" width="120" height="100" as="geometry" />
        </mxCell>
        <mxCell id="38oo2TJcjjMxT0UDTYOd-37" style="edgeStyle=orthogonalEdgeStyle;rounded=0;orthogonalLoop=1;jettySize=auto;html=1;entryX=0.5;entryY=0;entryDx=0;entryDy=0;" edge="1" parent="WIyWlLk6GJQsqaUBKTNV-1" source="38oo2TJcjjMxT0UDTYOd-17" target="38oo2TJcjjMxT0UDTYOd-36">
          <mxGeometry relative="1" as="geometry" />
        </mxCell>
        <mxCell id="38oo2TJcjjMxT0UDTYOd-17" value="Collision" style="strokeWidth=2;html=1;shape=mxgraph.flowchart.decision;whiteSpace=wrap;" vertex="1" parent="WIyWlLk6GJQsqaUBKTNV-1">
          <mxGeometry x="826.5" y="737" width="155" height="150" as="geometry" />
        </mxCell>
        <mxCell id="38oo2TJcjjMxT0UDTYOd-35" value="Quit" style="strokeWidth=2;html=1;shape=mxgraph.flowchart.terminator;whiteSpace=wrap;" vertex="1" parent="WIyWlLk6GJQsqaUBKTNV-1">
          <mxGeometry x="1184" y="1360" width="140" height="70" as="geometry" />
        </mxCell>
        <mxCell id="38oo2TJcjjMxT0UDTYOd-40" value="" style="edgeStyle=orthogonalEdgeStyle;rounded=0;orthogonalLoop=1;jettySize=auto;html=1;" edge="1" parent="WIyWlLk6GJQsqaUBKTNV-1" source="38oo2TJcjjMxT0UDTYOd-36" target="38oo2TJcjjMxT0UDTYOd-39">
          <mxGeometry relative="1" as="geometry" />
        </mxCell>
        <mxCell id="38oo2TJcjjMxT0UDTYOd-36" value="Game over&lt;br&gt;Display Score&lt;div&gt;(Speaker)&lt;/div&gt;" style="rounded=1;whiteSpace=wrap;html=1;absoluteArcSize=1;arcSize=14;strokeWidth=2;" vertex="1" parent="WIyWlLk6GJQsqaUBKTNV-1">
          <mxGeometry x="834" y="970" width="140" height="130" as="geometry" />
        </mxCell>
        <mxCell id="38oo2TJcjjMxT0UDTYOd-39" value="Play Again" style="strokeWidth=2;html=1;shape=mxgraph.flowchart.decision;whiteSpace=wrap;" vertex="1" parent="WIyWlLk6GJQsqaUBKTNV-1">
          <mxGeometry x="834" y="1160" width="140" height="140" as="geometry" />
        </mxCell>
        <mxCell id="38oo2TJcjjMxT0UDTYOd-55" value="" style="group" vertex="1" connectable="0" parent="WIyWlLk6GJQsqaUBKTNV-1">
          <mxGeometry x="758" y="610" width="68.5" height="207" as="geometry" />
        </mxCell>
        <mxCell id="38oo2TJcjjMxT0UDTYOd-29" value="" style="line;strokeWidth=2;html=1;" vertex="1" parent="38oo2TJcjjMxT0UDTYOd-55">
          <mxGeometry x="6" y="197" width="62.5" height="10" as="geometry" />
        </mxCell>
        <mxCell id="38oo2TJcjjMxT0UDTYOd-30" value="" style="line;strokeWidth=2;direction=south;html=1;" vertex="1" parent="38oo2TJcjjMxT0UDTYOd-55">
          <mxGeometry width="10" height="202" as="geometry" />
        </mxCell>
        <mxCell id="38oo2TJcjjMxT0UDTYOd-32" value="" style="endArrow=classic;html=1;rounded=0;entryX=0;entryY=0.5;entryDx=0;entryDy=0;exitX=0;exitY=0.5;exitDx=0;exitDy=0;exitPerimeter=0;" edge="1" parent="38oo2TJcjjMxT0UDTYOd-55" source="38oo2TJcjjMxT0UDTYOd-30" target="38oo2TJcjjMxT0UDTYOd-15">
          <mxGeometry width="50" height="50" relative="1" as="geometry">
            <mxPoint x="6" y="10" as="sourcePoint" />
            <mxPoint x="56" y="-40" as="targetPoint" />
          </mxGeometry>
        </mxCell>
        <mxCell id="38oo2TJcjjMxT0UDTYOd-33" value="No" style="text;html=1;align=center;verticalAlign=middle;resizable=0;points=[];autosize=1;strokeColor=none;fillColor=none;" vertex="1" parent="38oo2TJcjjMxT0UDTYOd-55">
          <mxGeometry x="16" y="168" width="40" height="30" as="geometry" />
        </mxCell>
        <mxCell id="38oo2TJcjjMxT0UDTYOd-56" value="" style="group" vertex="1" connectable="0" parent="WIyWlLk6GJQsqaUBKTNV-1">
          <mxGeometry x="964" y="618.8199999999999" width="86" height="616.1800000000001" as="geometry" />
        </mxCell>
        <mxCell id="38oo2TJcjjMxT0UDTYOd-44" value="Yes" style="text;html=1;align=center;verticalAlign=middle;resizable=0;points=[];autosize=1;strokeColor=none;fillColor=none;" vertex="1" parent="38oo2TJcjjMxT0UDTYOd-56">
          <mxGeometry x="20" y="579.1800000000001" width="40" height="30" as="geometry" />
        </mxCell>
        <mxCell id="38oo2TJcjjMxT0UDTYOd-54" value="" style="group" vertex="1" connectable="0" parent="38oo2TJcjjMxT0UDTYOd-56">
          <mxGeometry width="86" height="616.1800000000001" as="geometry" />
        </mxCell>
        <mxCell id="38oo2TJcjjMxT0UDTYOd-41" value="" style="line;strokeWidth=2;html=1;" vertex="1" parent="38oo2TJcjjMxT0UDTYOd-54">
          <mxGeometry x="10" y="606.1800000000001" width="70" height="10" as="geometry" />
        </mxCell>
        <mxCell id="38oo2TJcjjMxT0UDTYOd-42" value="" style="line;strokeWidth=2;direction=south;html=1;" vertex="1" parent="38oo2TJcjjMxT0UDTYOd-54">
          <mxGeometry x="76" y="1.1800000000000637" width="10" height="611" as="geometry" />
        </mxCell>
        <mxCell id="38oo2TJcjjMxT0UDTYOd-43" value="" style="endArrow=classic;html=1;rounded=0;" edge="1" parent="38oo2TJcjjMxT0UDTYOd-54">
          <mxGeometry width="50" height="50" relative="1" as="geometry">
            <mxPoint x="80" as="sourcePoint" />
            <mxPoint as="targetPoint" />
          </mxGeometry>
        </mxCell>
        <mxCell id="38oo2TJcjjMxT0UDTYOd-57" value="" style="group" vertex="1" connectable="0" parent="WIyWlLk6GJQsqaUBKTNV-1">
          <mxGeometry x="720" y="250" width="189" height="1095" as="geometry" />
        </mxCell>
        <mxCell id="38oo2TJcjjMxT0UDTYOd-52" value="No" style="text;html=1;align=center;verticalAlign=middle;resizable=0;points=[];autosize=1;strokeColor=none;fillColor=none;" vertex="1" parent="38oo2TJcjjMxT0UDTYOd-57">
          <mxGeometry x="89" y="1060" width="40" height="30" as="geometry" />
        </mxCell>
        <mxCell id="38oo2TJcjjMxT0UDTYOd-53" value="" style="group" vertex="1" connectable="0" parent="38oo2TJcjjMxT0UDTYOd-57">
          <mxGeometry width="189" height="1095" as="geometry" />
        </mxCell>
        <mxCell id="38oo2TJcjjMxT0UDTYOd-46" value="" style="line;strokeWidth=2;direction=south;html=1;" vertex="1" parent="38oo2TJcjjMxT0UDTYOd-53">
          <mxGeometry x="179" y="1050" width="10" height="40" as="geometry" />
        </mxCell>
        <mxCell id="38oo2TJcjjMxT0UDTYOd-48" value="" style="line;strokeWidth=2;html=1;" vertex="1" parent="38oo2TJcjjMxT0UDTYOd-53">
          <mxGeometry x="4" y="1085" width="180" height="10" as="geometry" />
        </mxCell>
        <mxCell id="38oo2TJcjjMxT0UDTYOd-49" value="" style="line;strokeWidth=2;direction=south;html=1;" vertex="1" parent="38oo2TJcjjMxT0UDTYOd-53">
          <mxGeometry width="10" height="1090" as="geometry" />
        </mxCell>
        <mxCell id="38oo2TJcjjMxT0UDTYOd-51" value="" style="endArrow=classic;html=1;rounded=0;entryX=0;entryY=0.5;entryDx=0;entryDy=0;" edge="1" parent="38oo2TJcjjMxT0UDTYOd-53" target="38oo2TJcjjMxT0UDTYOd-3">
          <mxGeometry width="50" height="50" relative="1" as="geometry">
            <mxPoint x="4" as="sourcePoint" />
            <mxPoint x="54" y="-50" as="targetPoint" />
          </mxGeometry>
        </mxCell>
      </root>
    </mxGraphModel>
  </diagram>
</mxfile>
